<?xml version="1.0" encoding="utf-8"?>
<!-- Generator: Adobe Illustrator 27.1.1, SVG Export Plug-In . SVG Version: 6.00 Build 0)  -->
<svg version="1.1" id="Layer_1" xmlns="http://www.w3.org/2000/svg" xmlns:xlink="http://www.w3.org/1999/xlink" x="0px" y="0px"
	 viewBox="0 0 1141.3 514.7" style="enable-background:new 0 0 1141.3 514.7;" xml:space="preserve">
<style type="text/css">
	.st0{fill:#074F8D;}
</style>
<g>
	<g>
		<g>
			<path class="st0" d="M923.9,34c-22.9,0-45.3,0-67.6,0c-1.3-17.2,13-32.4,31.5-33.9C906.5-1.3,922,12.8,923.9,34z"/>
		</g>
		<g>
			<g>
				<path class="st0" d="M852.5,16c-44.4,7.1-88.9,8.9-133.3-0.1C763.6,7.8,808,8.1,852.5,16z"/>
			</g>
			<g>
				<path class="st0" d="M1061,15.9c-44.4,7.1-88.9,8.9-133.3-0.1C972.1,7.7,1016.6,8,1061,15.9z"/>
			</g>
		</g>
		<g>
			<path class="st0" d="M910.2,107.2c-9.4,6.9-21.9,7.1-33.5,7.1c-31.6,0-63.2,0-94.8,0c0.1,0.1,4.2-0.1,4.3,0l-97.1,0.2
				c0,0-8.1-0.1-10,0c-0.3,0-0.4,0-0.4,0s-10.4,0.1-10.4,0h-10.6V74.2c7.1,0,14.3,0,21.4,0c58.7,0,117.5,0,176.2-0.1
				c0.1-5.9,0.3-11.8,0.4-17.7c22.8,0,45.6,0,68.4,0.1C925.3,74.8,925,96.4,910.2,107.2z"/>
		</g>
	</g>
	<g>
		<g>
			<path class="st0" d="M435.6,34c22.9,0,45.3,0,67.6,0c1.3-17.2-13-32.4-31.5-33.9C453.1-1.3,437.6,12.8,435.6,34z"/>
		</g>
		<g>
			<g>
				<path class="st0" d="M507.1,16c44.4,7.1,88.9,8.9,133.3-0.1C596,7.8,551.6,8.1,507.1,16z"/>
			</g>
			<g>
				<path class="st0" d="M298.5,15.9c44.4,7.1,88.9,8.9,133.3-0.1C387.4,7.7,343,8,298.5,15.9z"/>
			</g>
		</g>
		<g>
			<path class="st0" d="M449.3,107.2c9.4,6.9,21.8,7.1,33.5,7.1c31.6,0,63.2,0,94.8,0c-0.1,0.1-0.1,0.1-0.2,0.2h93
				c0,0,10.4-0.1,10.4,0c0,0,10.4,0.1,10.4,0H708V74.2c-22.6,0-45.1,0-67.7,0c-45.4,0-90.8,0-136.2,0c-0.1-5.9-0.3-11.8-0.4-17.7
				c-22.8,0-45.6,0-68.4,0.1C434.2,74.8,434.6,96.4,449.3,107.2z"/>
		</g>
	</g>
</g>
<path class="st0" d="M279.2,101.6v223.6c0,35.1-9.7,62.1-29.2,81c-19.5,18.8-48,28.2-85.7,28.2h-40.8c-17.4,0-33.7-2.7-48.9-8.1
	c-15.2-5.4-28.3-13.2-39.4-23.5s-19.7-22.9-25.9-38c-6.2-15-9.3-31.9-9.3-50.6c0-34.8,10.7-62.2,32.1-82.1
	c21.4-19.9,52.3-29.9,92.8-29.9c4.7,0,33.6,1.6,47.8,2.8c12.4,1,35.5,7,51.4,11.3V101.6H279.2z M224.1,266.1
	c-8.8-2.4-20-5.3-30.2-6.6c-13-1.7-53.7-6.9-62.9-6.9c-50.6,0-76,21.2-76,63.6c0,20.6,6.4,37,19.2,49.4
	c12.8,12.3,29.2,18.5,49.1,18.5h39.9c12.4,0,23.3-2.2,33-6.7c9.7-4.4,16.7-11.3,21.1-20.7c4.4-9.3,6.6-19.9,6.6-31.6v-59H224.1z"/>
<path class="st0" d="M496.4,204.6v50.3h-63.2c-19.6,0-34.7,5.1-45.1,15.2c-10.4,10.1-15.7,24.7-15.7,43.7v120.6h-55.1V314.3
	c0-35.1,9.8-62.2,29.4-81.2c19.6-19,48-28.5,85-28.5H496.4z"/>
<g>
	<path class="st0" d="M1141.3,323.8c0,34.6-10.6,61.7-31.8,81.5c-21.2,19.8-51.9,29.7-92.1,29.7c-4.7,0-14.3-0.6-28.7-1.6
		c-12.6-1-50.5-8.7-69.7-13.2v94.5h-54.7V313.5c0-34.9,9.7-61.7,29-80.6c19.3-18.8,47.7-28.3,85.1-28.3h40.5c17.3,0,33.5,2.7,48.5,8
		c15.1,5.3,28.1,13.1,39.1,23.3s19.6,22.8,25.7,37.7C1138.2,288.6,1141.3,305.3,1141.3,323.8z M1086.7,322.4
		c0-22-6.2-38.7-18.6-50.2s-28.8-17.2-49.2-17.2h-39.1c-19.8,0-34.9,5-45.2,15.1c-10.4,10-15.5,24.5-15.5,43.3v56.9
		c15.6,3.8,47.9,10.8,58.7,12.4c13,1.9,24.4,2.8,34.2,2.8C1061.7,385.5,1086.7,364.5,1086.7,322.4z"/>
</g>
<path class="st0" d="M540,316.9c-6.5-16.1-9.8-33.3-9.7-51.7s3.4-35.6,10-51.6s15.9-29.7,27.7-40.9c11.9-11.3,25.9-20,42.1-26.1
	c16.2-6.1,33.5-9.2,51.9-9.1l36.3,0.1c18.4,0.1,35.7,3.2,51.8,9.4c16.2,6.2,30.1,15,41.9,26.4c11.8,11.3,21,25,27.5,41.1
	s9.8,33.3,9.7,51.7c-0.1,18.4-3.4,35.6-10,51.6s-15.9,29.7-27.7,40.9c-11.9,11.3-25.9,20-42.1,26.1s-33.5,9.2-51.9,9.1l-36.3-0.1
	c-18.4-0.1-35.7-3.2-51.8-9.4s-30.1-15-41.9-26.4C555.7,346.6,546.5,332.9,540,316.9z M578,265.3c-0.1,24.2,7.4,44,22.5,59.4
	s34.4,23.2,58.1,23.2l42.2,0.1c8.4,0,17.2-1.3,26.4-3.9c9.2-2.6,18.3-7.6,27.3-15.1c8.9-7.5,15.7-16.9,20.2-28.3
	c4.5-11.4,6.8-23,6.8-34.9c0-8.9-1.3-18.1-3.9-27.6s-7.6-18.8-14.9-27.8c-7.3-9.1-16.6-15.9-27.7-20.4c-11.2-4.5-22.4-6.8-33.7-6.8
	l-42.2-0.1c-11.3,0-22,1.9-32,5.8s-18.6,9.5-25.9,16.9c-7.2,7.3-12.9,16.1-17,26.4C580.1,242.5,578.1,253.5,578,265.3z"/>
</svg>
